<svg xmlns="http://www.w3.org/2000/svg" xmlns:xlink="http://www.w3.org/1999/xlink" width="1600" height="350"><defs><linearGradient id="a" x1="50%" x2="50%" y1="45.084%" y2="0%"><stop offset="0%" stop-color="#FFF"/><stop offset="100%" stop-color="#F2F6FE"/></linearGradient><linearGradient id="b" x1="0%" x2="100%" y1="50%" y2="45.47%"><stop offset="0%" stop-color="#6A4DEA"/><stop offset="100%" stop-color="#C3A4E2"/></linearGradient><linearGradient id="c" x1="40.048%" x2="28.834%" y1="31.849%" y2="7.547%"><stop offset="0%" stop-color="#FCE38A"/><stop offset="100%" stop-color="#EF814C"/></linearGradient><linearGradient id="d" x1="40.048%" x2="28.834%" y1="31.849%" y2="7.547%"><stop offset="0%" stop-color="#FCE38A"/><stop offset="100%" stop-color="#EF814C"/></linearGradient><linearGradient id="e" x1="40.048%" x2="28.834%" y1="31.849%" y2="7.547%"><stop offset="0%" stop-color="#FCE38A"/><stop offset="100%" stop-color="#EF814C"/></linearGradient><linearGradient id="f" x1="40.048%" x2="28.834%" y1="31.849%" y2="7.547%"><stop offset="0%" stop-color="#FCE38A"/><stop offset="100%" stop-color="#EF814C"/></linearGradient><linearGradient id="g" x1="40.048%" x2="28.834%" y1="31.849%" y2="7.547%"><stop offset="0%" stop-color="#FCE38A"/><stop offset="100%" stop-color="#EF814C"/></linearGradient><linearGradient id="h" x1="40.048%" x2="28.834%" y1="31.849%" y2="7.547%"><stop offset="0%" stop-color="#FCE38A"/><stop offset="100%" stop-color="#EF814C"/></linearGradient><linearGradient id="i" x1="40.048%" x2="28.834%" y1="31.849%" y2="7.547%"><stop offset="0%" stop-color="#FCE38A"/><stop offset="100%" stop-color="#EF814C"/></linearGradient><linearGradient id="j" x1="0%" x2="100%" y1="50%" y2="46.756%"><stop offset="0%" stop-color="#6A4DEA"/><stop offset="100%" stop-color="#C3A4E2"/></linearGradient><linearGradient id="k" x1="50%" x2="60.936%" y1="144.398%" y2="0%"><stop offset="0%" stop-color="#6727FB"/><stop offset="100%" stop-color="#FCFBFF"/></linearGradient><linearGradient id="l" x1="50%" x2="60.936%" y1="144.398%" y2="0%"><stop offset="0%" stop-color="#6727FB"/><stop offset="100%" stop-color="#FCFBFF"/></linearGradient><linearGradient id="m" x1="50%" x2="60.936%" y1="144.398%" y2="0%"><stop offset="0%" stop-color="#6727FB"/><stop offset="100%" stop-color="#FCFBFF"/></linearGradient><linearGradient id="n" x1="50%" x2="60.936%" y1="144.398%" y2="0%"><stop offset="0%" stop-color="#6727FB"/><stop offset="100%" stop-color="#FCFBFF"/></linearGradient><linearGradient id="o" x1="50%" x2="60.936%" y1="144.398%" y2="0%"><stop offset="0%" stop-color="#6727FB"/><stop offset="100%" stop-color="#FCFBFF"/></linearGradient><linearGradient id="p" x1="-59.29%" x2="67.44%" y1="50.503%" y2="49.971%"><stop offset="0%" stop-color="#6727FB"/><stop offset="100%" stop-color="#FFF"/></linearGradient><linearGradient id="q" x1="-59.29%" x2="67.44%" y1="50.029%" y2="49.998%"><stop offset="0%" stop-color="#6727FB"/><stop offset="100%" stop-color="#FFF"/></linearGradient><linearGradient id="r" x1="-59.29%" x2="67.44%" y1="50.035%" y2="49.998%"><stop offset="0%" stop-color="#6727FB"/><stop offset="100%" stop-color="#FFF"/></linearGradient><linearGradient id="s" x1="-59.29%" x2="67.44%" y1="50.118%" y2="49.993%"><stop offset="0%" stop-color="#6727FB"/><stop offset="100%" stop-color="#FFF"/></linearGradient><linearGradient id="t" x1="72.718%" x2="56.658%" y1="79.789%" y2="-26.953%"><stop offset="0%" stop-color="#6727FB"/><stop offset="100%" stop-color="#ECE2FF"/></linearGradient><linearGradient id="w" x1="50%" x2="50%" y1="0%" y2="100%"><stop offset="0%" stop-color="#FFF"/><stop offset="100%" stop-color="#FFF"/></linearGradient><linearGradient id="x" x1="65.509%" x2="50%" y1="92.007%" y2="0%"><stop offset="0%" stop-color="#F9BC64"/><stop offset="100%" stop-color="#FD4F00"/></linearGradient><filter id="u" width="153.1%" height="153.1%" x="-26.6%" y="-20.6%" filterUnits="objectBoundingBox"><feOffset dy="13" in="SourceAlpha" result="shadowOffsetOuter1"/><feGaussianBlur in="shadowOffsetOuter1" result="shadowBlurOuter1" stdDeviation="17"/><feComposite in="shadowBlurOuter1" in2="SourceAlpha" operator="out" result="shadowBlurOuter1"/><feColorMatrix in="shadowBlurOuter1" values="0 0 0 0 0.883359075 0 0 0 0 0.850669898 0 0 0 0 1 0 0 0 1 0"/></filter><filter id="y" width="157.8%" height="245.7%" x="-28.9%" y="-72.8%" filterUnits="objectBoundingBox"><feOffset dy="10" in="SourceAlpha" result="shadowOffsetOuter1"/><feMorphology in="SourceAlpha" radius="1" result="shadowInner"/><feOffset dy="10" in="shadowInner" result="shadowInner"/><feComposite in="shadowOffsetOuter1" in2="shadowInner" operator="out" result="shadowOffsetOuter1"/><feGaussianBlur in="shadowOffsetOuter1" result="shadowBlurOuter1" stdDeviation="3.5"/><feColorMatrix in="shadowBlurOuter1" result="shadowMatrixOuter1" values="0 0 0 0 0.884788371 0 0 0 0 0.852499762 0 0 0 0 1 0 0 0 1 0"/><feMerge><feMergeNode in="shadowMatrixOuter1"/><feMergeNode in="SourceGraphic"/></feMerge></filter><filter id="z" width="153.1%" height="153.1%" x="-26.6%" y="-20.6%" filterUnits="objectBoundingBox"><feOffset dy="13" in="SourceAlpha" result="shadowOffsetOuter1"/><feGaussianBlur in="shadowOffsetOuter1" result="shadowBlurOuter1" stdDeviation="17"/><feComposite in="shadowBlurOuter1" in2="SourceAlpha" operator="out" result="shadowBlurOuter1"/><feColorMatrix in="shadowBlurOuter1" values="0 0 0 0 0.883359075 0 0 0 0 0.850669898 0 0 0 0 1 0 0 0 1 0"/></filter><filter id="J" width="158.8%" height="248.9%" x="-29.4%" y="-74.4%" filterUnits="objectBoundingBox"><feOffset dy="10" in="SourceAlpha" result="shadowOffsetOuter1"/><feMorphology in="SourceAlpha" radius="1" result="shadowInner"/><feOffset dy="10" in="shadowInner" result="shadowInner"/><feComposite in="shadowOffsetOuter1" in2="shadowInner" operator="out" result="shadowOffsetOuter1"/><feGaussianBlur in="shadowOffsetOuter1" result="shadowBlurOuter1" stdDeviation="3.5"/><feColorMatrix in="shadowBlurOuter1" result="shadowMatrixOuter1" values="0 0 0 0 0.884788371 0 0 0 0 0.852499762 0 0 0 0 1 0 0 0 1 0"/><feMerge><feMergeNode in="shadowMatrixOuter1"/><feMergeNode in="SourceGraphic"/></feMerge></filter><path id="B" d="M.519.487h68.748V69.55H.519z"/><path id="D" d="M.475.067H69.05v68.764H.475z"/><path id="F" d="M.202.135H45.5v43.691H.202z"/><path id="H" d="M0 .343h44.61v43.665H0z"/><circle id="v" cx="108.266" cy="108.266" r="108.266"/><circle id="A" cx="108.266" cy="108.266" r="108.266"/></defs><g fill="none" fill-rule="evenodd"><path fill="#FFF" d="M0 0h1600v350H0z"/><path fill="url(#a)" d="M0 0h1600v350H0z"/><path fill="#BBA8FF" fill-rule="nonzero" d="M27.328 325.108a1.328 1.328 0 110 2.656 1.328 1.328 0 010-2.656zm9.036 0a1.328 1.328 0 110 2.656 1.328 1.328 0 010-2.656zm9.036 0a1.328 1.328 0 110 2.656 1.328 1.328 0 010-2.656zm9.036 0a1.328 1.328 0 110 2.656 1.328 1.328 0 010-2.656zm9.035 0a1.328 1.328 0 110 2.656 1.328 1.328 0 010-2.656zm9.036 0a1.328 1.328 0 110 2.656 1.328 1.328 0 010-2.656zm9.036 0a1.328 1.328 0 110 2.656 1.328 1.328 0 010-2.656zm9.036 0a1.328 1.328 0 110 2.656 1.328 1.328 0 010-2.656zm9.036 0a1.328 1.328 0 110 2.656 1.328 1.328 0 010-2.656zm9.036 0a1.328 1.328 0 110 2.656 1.328 1.328 0 010-2.656zm9.036 0a1.328 1.328 0 110 2.656 1.328 1.328 0 010-2.656zm9.036 0a1.328 1.328 0 110 2.656 1.328 1.328 0 010-2.656zm9.036 0a1.328 1.328 0 110 2.656 1.328 1.328 0 010-2.656zm9.035 0a1.328 1.328 0 110 2.656 1.328 1.328 0 010-2.656zm9.036 0a1.328 1.328 0 110 2.656 1.328 1.328 0 010-2.656zm9.036 0a1.328 1.328 0 110 2.656 1.328 1.328 0 010-2.656zm9.036 0a1.328 1.328 0 110 2.656 1.328 1.328 0 010-2.656zm9.036 0a1.328 1.328 0 110 2.656 1.328 1.328 0 010-2.656zm9.036 0a1.328 1.328 0 110 2.656 1.328 1.328 0 010-2.656zm9.036 0a1.328 1.328 0 110 2.656 1.328 1.328 0 010-2.656zm9.036 0a1.328 1.328 0 110 2.656 1.328 1.328 0 010-2.656zm9.035 0a1.328 1.328 0 110 2.656 1.328 1.328 0 010-2.656zm9.036 0a1.328 1.328 0 110 2.656 1.328 1.328 0 010-2.656zm9.036 0a1.328 1.328 0 110 2.656 1.328 1.328 0 010-2.656zm9.036 0a1.328 1.328 0 110 2.656 1.328 1.328 0 010-2.656zm9.036 0a1.328 1.328 0 110 2.656 1.328 1.328 0 010-2.656zm9.036 0a1.328 1.328 0 110 2.656 1.328 1.328 0 010-2.656zm9.036 0a1.328 1.328 0 110 2.656 1.328 1.328 0 010-2.656zm9.036 0a1.328 1.328 0 110 2.656 1.328 1.328 0 010-2.656zm9.036 0a1.328 1.328 0 110 2.656 1.328 1.328 0 010-2.656zm9.035 0a1.328 1.328 0 110 2.656 1.328 1.328 0 010-2.656zm9.036 0a1.328 1.328 0 110 2.656 1.328 1.328 0 010-2.656zm9.036 0a1.328 1.328 0 110 2.656 1.328 1.328 0 010-2.656zm9.036 0a1.328 1.328 0 110 2.656 1.328 1.328 0 010-2.656zm9.036 0a1.328 1.328 0 110 2.656 1.328 1.328 0 010-2.656zm9.036 0a1.328 1.328 0 110 2.656 1.328 1.328 0 010-2.656zm9.036 0a1.328 1.328 0 110 2.656 1.328 1.328 0 010-2.656zm9.036 0a1.328 1.328 0 110 2.656 1.328 1.328 0 010-2.656zm9.036 0a1.328 1.328 0 110 2.656 1.328 1.328 0 010-2.656zm9.035 0a1.328 1.328 0 110 2.656 1.328 1.328 0 010-2.656zm9.036 0a1.328 1.328 0 110 2.656 1.328 1.328 0 010-2.656zm9.036 0a1.328 1.328 0 110 2.656 1.328 1.328 0 010-2.656zm9.036 0a1.328 1.328 0 110 2.656 1.328 1.328 0 010-2.656zm-379.507-9.036a1.328 1.328 0 110 2.656 1.328 1.328 0 010-2.656zm9.036 0a1.328 1.328 0 110 2.656 1.328 1.328 0 010-2.656zm9.036 0a1.328 1.328 0 110 2.656 1.328 1.328 0 010-2.656zm9.036 0a1.328 1.328 0 110 2.656 1.328 1.328 0 010-2.656zm9.035 0a1.328 1.328 0 110 2.656 1.328 1.328 0 010-2.656zm9.036 0a1.328 1.328 0 110 2.656 1.328 1.328 0 010-2.656zm9.036 0a1.328 1.328 0 110 2.656 1.328 1.328 0 010-2.656zm9.036 0a1.328 1.328 0 110 2.656 1.328 1.328 0 010-2.656zm9.036 0a1.328 1.328 0 110 2.656 1.328 1.328 0 010-2.656zm9.036 0a1.328 1.328 0 110 2.656 1.328 1.328 0 010-2.656zm9.036 0a1.328 1.328 0 110 2.656 1.328 1.328 0 010-2.656zm9.036 0a1.328 1.328 0 110 2.656 1.328 1.328 0 010-2.656zm9.036 0a1.328 1.328 0 110 2.656 1.328 1.328 0 010-2.656zm9.035 0a1.328 1.328 0 110 2.656 1.328 1.328 0 010-2.656zm9.036 0a1.328 1.328 0 110 2.656 1.328 1.328 0 010-2.656zm9.036 0a1.328 1.328 0 110 2.656 1.328 1.328 0 010-2.656zm9.036 0a1.328 1.328 0 110 2.656 1.328 1.328 0 010-2.656zm9.036 0a1.328 1.328 0 110 2.656 1.328 1.328 0 010-2.656zm9.036 0a1.328 1.328 0 110 2.656 1.328 1.328 0 010-2.656zm9.036 0a1.328 1.328 0 110 2.656 1.328 1.328 0 010-2.656zm9.036 0a1.328 1.328 0 110 2.656 1.328 1.328 0 010-2.656zm9.035 0a1.328 1.328 0 110 2.656 1.328 1.328 0 010-2.656zm9.036 0a1.328 1.328 0 110 2.656 1.328 1.328 0 010-2.656zm9.036 0a1.328 1.328 0 110 2.656 1.328 1.328 0 010-2.656zm9.036 0a1.328 1.328 0 110 2.656 1.328 1.328 0 010-2.656zm9.036 0a1.328 1.328 0 110 2.656 1.328 1.328 0 010-2.656zm9.036 0a1.328 1.328 0 110 2.656 1.328 1.328 0 010-2.656zm9.036 0a1.328 1.328 0 110 2.656 1.328 1.328 0 010-2.656zm9.036 0a1.328 1.328 0 110 2.656 1.328 1.328 0 010-2.656zm9.036 0a1.328 1.328 0 110 2.656 1.328 1.328 0 010-2.656zm9.035 0a1.328 1.328 0 110 2.656 1.328 1.328 0 010-2.656zm9.036 0a1.328 1.328 0 110 2.656 1.328 1.328 0 010-2.656zm9.036 0a1.328 1.328 0 110 2.656 1.328 1.328 0 010-2.656zm9.036 0a1.328 1.328 0 110 2.656 1.328 1.328 0 010-2.656zm9.036 0a1.328 1.328 0 110 2.656 1.328 1.328 0 010-2.656zm9.036 0a1.328 1.328 0 110 2.656 1.328 1.328 0 010-2.656zm9.036 0a1.328 1.328 0 110 2.656 1.328 1.328 0 010-2.656zm9.036 0a1.328 1.328 0 110 2.656 1.328 1.328 0 010-2.656zm9.036 0a1.328 1.328 0 110 2.656 1.328 1.328 0 010-2.656zm9.035 0a1.328 1.328 0 110 2.656 1.328 1.328 0 010-2.656zm9.036 0a1.328 1.328 0 110 2.656 1.328 1.328 0 010-2.656zm9.036 0a1.328 1.328 0 110 2.656 1.328 1.328 0 010-2.656zm9.036 0a1.328 1.328 0 110 2.656 1.328 1.328 0 010-2.656zm-180.718-9.036a1.328 1.328 0 110 2.656 1.328 1.328 0 010-2.656zm-198.79 0a1.328 1.328 0 11.001 2.656 1.328 1.328 0 010-2.656zm99.396 0a1.328 1.328 0 110 2.656 1.328 1.328 0 010-2.656zm-63.252 0a1.328 1.328 0 110 2.656 1.328 1.328 0 010-2.656zm171.682 0a1.328 1.328 0 110 2.656 1.328 1.328 0 010-2.656zm-135.538 0a1.328 1.328 0 110 2.656 1.328 1.328 0 010-2.656zm-45.18 0a1.328 1.328 0 110 2.656 1.328 1.328 0 010-2.656zm81.324 0a1.328 1.328 0 110 2.656 1.328 1.328 0 010-2.656zm117.466 0a1.328 1.328 0 110 2.656 1.328 1.328 0 010-2.656zm-81.323 0a1.328 1.328 0 110 2.656 1.328 1.328 0 010-2.656zm-27.108 0a1.328 1.328 0 110 2.656 1.328 1.328 0 010-2.656zm63.252 0a1.328 1.328 0 110 2.656 1.328 1.328 0 010-2.656zm63.25 0a1.328 1.328 0 110 2.656 1.328 1.328 0 010-2.656zm-27.107 0a1.328 1.328 0 110 2.656 1.328 1.328 0 010-2.656zm-153.61 0a1.328 1.328 0 110 2.656 1.328 1.328 0 010-2.656zm189.754 0a1.328 1.328 0 110 2.656 1.328 1.328 0 010-2.656zm9.036 0a1.328 1.328 0 110 2.656 1.328 1.328 0 010-2.656zm27.107 0a1.328 1.328 0 110 2.656 1.328 1.328 0 010-2.656zm-153.61 0a1.328 1.328 0 110 2.656 1.328 1.328 0 010-2.656zm189.754 0a1.328 1.328 0 110 2.656 1.328 1.328 0 010-2.656zm-45.18 0a1.328 1.328 0 110 2.656 1.328 1.328 0 010-2.656zm81.323 0a1.328 1.328 0 110 2.656 1.328 1.328 0 010-2.656zm-352.4 0a1.328 1.328 0 110 2.656 1.328 1.328 0 010-2.656zm9.037 0a1.328 1.328 0 110 2.656 1.328 1.328 0 010-2.656zm280.112 0a1.328 1.328 0 110 2.656 1.328 1.328 0 010-2.656zm-207.825 0a1.328 1.328 0 110 2.656 1.328 1.328 0 010-2.656zm63.251 0a1.328 1.328 0 110 2.656 1.328 1.328 0 010-2.656zm9.036 0a1.328 1.328 0 110 2.656 1.328 1.328 0 010-2.656zm153.61 0a1.328 1.328 0 110 2.656 1.328 1.328 0 010-2.656zm-81.323 0a1.328 1.328 0 110 2.656 1.328 1.328 0 010-2.656zm-153.61 0a1.328 1.328 0 110 2.656 1.328 1.328 0 010-2.656zm225.897 0a1.328 1.328 0 110 2.656 1.328 1.328 0 010-2.656zm27.108 0a1.328 1.328 0 110 2.656 1.328 1.328 0 010-2.656zm45.18 0a1.328 1.328 0 110 2.656 1.328 1.328 0 010-2.656zm-207.826 0a1.328 1.328 0 110 2.656 1.328 1.328 0 010-2.656zm-45.18 0a1.328 1.328 0 110 2.656 1.328 1.328 0 010-2.656zm225.897 0a1.328 1.328 0 110 2.656 1.328 1.328 0 010-2.656zm-81.323 0a1.328 1.328 0 110 2.656 1.328 1.328 0 010-2.656zm-225.897 0a1.328 1.328 0 110 2.656 1.328 1.328 0 010-2.656zm9.036 0a1.328 1.328 0 110 2.656 1.328 1.328 0 010-2.656zm316.256 0a1.328 1.328 0 110 2.656 1.328 1.328 0 010-2.656zm-27.107 0a1.328 1.328 0 110 2.656 1.328 1.328 0 010-2.656zm-153.61 0a1.328 1.328 0 110 2.656 1.328 1.328 0 010-2.656zM235.152 298a1.328 1.328 0 110 2.656 1.328 1.328 0 010-2.656zM45.4 298a1.328 1.328 0 110 2.656 1.328 1.328 0 010-2.656zm198.79 0a1.328 1.328 0 110 2.656 1.328 1.328 0 010-2.656zM63.47 298a1.328 1.328 0 110 2.656 1.328 1.328 0 010-2.656zm189.754 0a1.328 1.328 0 110 2.656 1.328 1.328 0 010-2.656zm-171.682 0a1.328 1.328 0 110 2.656 1.328 1.328 0 010-2.656zm180.718 0a1.328 1.328 0 110 2.656 1.328 1.328 0 010-2.656zm-162.646 0a1.328 1.328 0 110 2.656 1.328 1.328 0 010-2.656zm171.682 0a1.328 1.328 0 110 2.656 1.328 1.328 0 010-2.656zm-153.61 0a1.328 1.328 0 110 2.656 1.328 1.328 0 010-2.656zm162.646 0a1.328 1.328 0 110 2.656 1.328 1.328 0 010-2.656zm-144.574 0a1.328 1.328 0 110 2.656 1.328 1.328 0 010-2.656zm153.61 0a1.328 1.328 0 110 2.656 1.328 1.328 0 010-2.656zm-135.539 0a1.328 1.328 0 110 2.656 1.328 1.328 0 010-2.656zm144.574 0a1.328 1.328 0 110 2.656 1.328 1.328 0 010-2.656zm-126.502 0a1.328 1.328 0 110 2.656 1.328 1.328 0 010-2.656zm135.538 0a1.328 1.328 0 110 2.656 1.328 1.328 0 010-2.656zm-117.466 0a1.328 1.328 0 110 2.656 1.328 1.328 0 010-2.656zm126.502 0a1.328 1.328 0 110 2.656 1.328 1.328 0 010-2.656zm-108.43 0a1.328 1.328 0 110 2.656 1.328 1.328 0 010-2.656zm117.466 0a1.328 1.328 0 110 2.656 1.328 1.328 0 010-2.656zm-289.148 0a1.328 1.328 0 110 2.656 1.328 1.328 0 010-2.656zm298.184 0a1.328 1.328 0 110 2.656 1.328 1.328 0 010-2.656zm-262.04 0a1.328 1.328 0 110 2.656 1.328 1.328 0 010-2.656zm271.076 0a1.328 1.328 0 110 2.656 1.328 1.328 0 010-2.656zm-234.933 0a1.328 1.328 0 110 2.656 1.328 1.328 0 010-2.656zm243.969 0a1.328 1.328 0 110 2.656 1.328 1.328 0 010-2.656zm-207.826 0a1.328 1.328 0 110 2.656 1.328 1.328 0 010-2.656zm216.862 0a1.328 1.328 0 110 2.656 1.328 1.328 0 010-2.656zm-180.718 0a1.328 1.328 0 110 2.656 1.328 1.328 0 010-2.656zm189.754 0a1.328 1.328 0 110 2.656 1.328 1.328 0 010-2.656zm-153.61 0a1.328 1.328 0 110 2.656 1.328 1.328 0 010-2.656zm162.645 0a1.328 1.328 0 110 2.656 1.328 1.328 0 010-2.656zM90.58 298a1.328 1.328 0 110 2.656 1.328 1.328 0 010-2.656zm298.184 0a1.328 1.328 0 110 2.656 1.328 1.328 0 010-2.656zm-225.897 0a1.328 1.328 0 110 2.656 1.328 1.328 0 010-2.656zm234.933 0a1.328 1.328 0 110 2.656 1.328 1.328 0 010-2.656zm-343.363 0a1.328 1.328 0 110 2.656 1.328 1.328 0 010-2.656zm352.4 0a1.328 1.328 0 110 2.656 1.328 1.328 0 010-2.656zm-207.826 0a1.328 1.328 0 110 2.656 1.328 1.328 0 010-2.656zm27.107 0a1.328 1.328 0 110 2.656 1.328 1.328 0 010-2.656zm-99.394 0a1.328 1.328 0 110 2.656 1.328 1.328 0 010-2.656zm-99.395 0a1.328 1.328 0 110 2.656 1.328 1.328 0 010-2.656z" opacity=".585"/><path fill="#BBA8FF" fill-rule="nonzero" d="M1130.575 84.302a1.575 1.575 0 110 3.15 1.575 1.575 0 010-3.15zm10.717 0a1.575 1.575 0 110 3.15 1.575 1.575 0 010-3.15zm10.717 0a1.575 1.575 0 110 3.15 1.575 1.575 0 010-3.15zm10.717 0a1.575 1.575 0 110 3.15 1.575 1.575 0 010-3.15zm10.717 0a1.575 1.575 0 110 3.15 1.575 1.575 0 010-3.15zm10.717 0a1.575 1.575 0 110 3.15 1.575 1.575 0 010-3.15zm10.717 0a1.575 1.575 0 110 3.15 1.575 1.575 0 010-3.15zm10.718 0a1.575 1.575 0 110 3.15 1.575 1.575 0 010-3.15zm10.717 0a1.575 1.575 0 110 3.15 1.575 1.575 0 010-3.15zm10.717 0a1.575 1.575 0 110 3.15 1.575 1.575 0 010-3.15zm10.717 0a1.575 1.575 0 110 3.15 1.575 1.575 0 010-3.15zm10.717 0a1.575 1.575 0 110 3.15 1.575 1.575 0 010-3.15zm10.717 0a1.575 1.575 0 110 3.15 1.575 1.575 0 010-3.15zm10.717 0a1.575 1.575 0 110 3.15 1.575 1.575 0 010-3.15zm10.717 0a1.575 1.575 0 110 3.15 1.575 1.575 0 010-3.15zm10.717 0a1.575 1.575 0 110 3.15 1.575 1.575 0 010-3.15zm10.717 0a1.575 1.575 0 110 3.15 1.575 1.575 0 010-3.15zm10.717 0a1.575 1.575 0 110 3.15 1.575 1.575 0 010-3.15zm10.717 0a1.575 1.575 0 110 3.15 1.575 1.575 0 010-3.15zm10.717 0a1.575 1.575 0 110 3.15 1.575 1.575 0 010-3.15zm10.718 0a1.575 1.575 0 110 3.15 1.575 1.575 0 010-3.15zm10.717 0a1.575 1.575 0 110 3.15 1.575 1.575 0 010-3.15zm10.717 0a1.575 1.575 0 110 3.15 1.575 1.575 0 010-3.15zm10.717 0a1.575 1.575 0 110 3.15 1.575 1.575 0 010-3.15zm10.717 0a1.575 1.575 0 110 3.15 1.575 1.575 0 010-3.15zm10.717 0a1.575 1.575 0 110 3.15 1.575 1.575 0 010-3.15zm10.717 0a1.575 1.575 0 110 3.15 1.575 1.575 0 010-3.15zm10.717 0a1.575 1.575 0 110 3.15 1.575 1.575 0 010-3.15zm10.717 0a1.575 1.575 0 110 3.15 1.575 1.575 0 010-3.15zm10.717 0a1.575 1.575 0 110 3.15 1.575 1.575 0 010-3.15zm10.717 0a1.575 1.575 0 110 3.15 1.575 1.575 0 010-3.15zm10.717 0a1.575 1.575 0 110 3.15 1.575 1.575 0 010-3.15zm10.717 0a1.575 1.575 0 110 3.15 1.575 1.575 0 010-3.15zm10.717 0a1.575 1.575 0 110 3.15 1.575 1.575 0 010-3.15zm10.718 0a1.575 1.575 0 110 3.15 1.575 1.575 0 010-3.15zm10.717 0a1.575 1.575 0 110 3.15 1.575 1.575 0 010-3.15zm10.717 0a1.575 1.575 0 110 3.15 1.575 1.575 0 010-3.15zm10.717 0a1.575 1.575 0 110 3.15 1.575 1.575 0 010-3.15zm10.717 0a1.575 1.575 0 110 3.15 1.575 1.575 0 010-3.15zm10.717 0a1.575 1.575 0 110 3.15 1.575 1.575 0 010-3.15zm-417.966-10.717a1.575 1.575 0 110 3.15 1.575 1.575 0 010-3.15zm10.717 0a1.575 1.575 0 110 3.15 1.575 1.575 0 010-3.15zm10.717 0a1.575 1.575 0 110 3.15 1.575 1.575 0 010-3.15zm10.717 0a1.575 1.575 0 110 3.15 1.575 1.575 0 010-3.15zm10.717 0a1.575 1.575 0 110 3.15 1.575 1.575 0 010-3.15zm10.717 0a1.575 1.575 0 110 3.15 1.575 1.575 0 010-3.15zm10.717 0a1.575 1.575 0 110 3.15 1.575 1.575 0 010-3.15zm10.718 0a1.575 1.575 0 110 3.15 1.575 1.575 0 010-3.15zm10.717 0a1.575 1.575 0 110 3.15 1.575 1.575 0 010-3.15zm10.717 0a1.575 1.575 0 110 3.15 1.575 1.575 0 010-3.15zm10.717 0a1.575 1.575 0 110 3.15 1.575 1.575 0 010-3.15zm10.717 0a1.575 1.575 0 110 3.15 1.575 1.575 0 010-3.15zm10.717 0a1.575 1.575 0 110 3.15 1.575 1.575 0 010-3.15zm10.717 0a1.575 1.575 0 110 3.15 1.575 1.575 0 010-3.15zm10.717 0a1.575 1.575 0 110 3.15 1.575 1.575 0 010-3.15zm10.717 0a1.575 1.575 0 110 3.15 1.575 1.575 0 010-3.15zm10.717 0a1.575 1.575 0 110 3.15 1.575 1.575 0 010-3.15zm10.717 0a1.575 1.575 0 110 3.15 1.575 1.575 0 010-3.15zm10.717 0a1.575 1.575 0 110 3.15 1.575 1.575 0 010-3.15zm10.717 0a1.575 1.575 0 110 3.15 1.575 1.575 0 010-3.15zm10.718 0a1.575 1.575 0 110 3.15 1.575 1.575 0 010-3.15zm10.717 0a1.575 1.575 0 110 3.15 1.575 1.575 0 010-3.15zm10.717 0a1.575 1.575 0 110 3.15 1.575 1.575 0 010-3.15zm10.717 0a1.575 1.575 0 110 3.15 1.575 1.575 0 010-3.15zm10.717 0a1.575 1.575 0 110 3.15 1.575 1.575 0 010-3.15zm10.717 0a1.575 1.575 0 110 3.15 1.575 1.575 0 010-3.15zm10.717 0a1.575 1.575 0 110 3.15 1.575 1.575 0 010-3.15zm10.717 0a1.575 1.575 0 110 3.15 1.575 1.575 0 010-3.15zm10.717 0a1.575 1.575 0 110 3.15 1.575 1.575 0 010-3.15zm10.717 0a1.575 1.575 0 110 3.15 1.575 1.575 0 010-3.15zm10.717 0a1.575 1.575 0 110 3.15 1.575 1.575 0 010-3.15zm10.717 0a1.575 1.575 0 110 3.15 1.575 1.575 0 010-3.15zm10.717 0a1.575 1.575 0 110 3.15 1.575 1.575 0 010-3.15zm10.717 0a1.575 1.575 0 110 3.15 1.575 1.575 0 010-3.15zm10.718 0a1.575 1.575 0 110 3.15 1.575 1.575 0 010-3.15zm10.717 0a1.575 1.575 0 110 3.15 1.575 1.575 0 010-3.15zm10.717 0a1.575 1.575 0 110 3.15 1.575 1.575 0 010-3.15zm10.717 0a1.575 1.575 0 110 3.15 1.575 1.575 0 010-3.15zm10.717 0a1.575 1.575 0 110 3.15 1.575 1.575 0 010-3.15zm10.717 0a1.575 1.575 0 110 3.15 1.575 1.575 0 010-3.15zm-417.966-10.717a1.575 1.575 0 110 3.15 1.575 1.575 0 010-3.15zm417.966 0a1.575 1.575 0 110 3.15 1.575 1.575 0 010-3.15zm-407.249 0a1.575 1.575 0 110 3.15 1.575 1.575 0 010-3.15zm10.717 0a1.575 1.575 0 110 3.15 1.575 1.575 0 010-3.15zm10.717 0a1.575 1.575 0 110 3.15 1.575 1.575 0 010-3.15zm10.717 0a1.575 1.575 0 110 3.15 1.575 1.575 0 010-3.15zm10.717 0a1.575 1.575 0 110 3.15 1.575 1.575 0 010-3.15zm10.717 0a1.575 1.575 0 110 3.15 1.575 1.575 0 010-3.15zm10.718 0a1.575 1.575 0 110 3.15 1.575 1.575 0 010-3.15zm10.717 0a1.575 1.575 0 110 3.15 1.575 1.575 0 010-3.15zm10.717 0a1.575 1.575 0 110 3.15 1.575 1.575 0 010-3.15zm10.717 0a1.575 1.575 0 110 3.15 1.575 1.575 0 010-3.15zm10.717 0a1.575 1.575 0 110 3.15 1.575 1.575 0 010-3.15zm10.717 0a1.575 1.575 0 110 3.15 1.575 1.575 0 010-3.15zm10.717 0a1.575 1.575 0 110 3.15 1.575 1.575 0 010-3.15zm10.717 0a1.575 1.575 0 110 3.15 1.575 1.575 0 010-3.15zm10.717 0a1.575 1.575 0 110 3.15 1.575 1.575 0 010-3.15zm10.717 0a1.575 1.575 0 110 3.15 1.575 1.575 0 010-3.15zm10.717 0a1.575 1.575 0 110 3.15 1.575 1.575 0 010-3.15zm10.717 0a1.575 1.575 0 110 3.15 1.575 1.575 0 010-3.15zm10.717 0a1.575 1.575 0 110 3.15 1.575 1.575 0 010-3.15zm10.718 0a1.575 1.575 0 110 3.15 1.575 1.575 0 010-3.15zm10.717 0a1.575 1.575 0 110 3.15 1.575 1.575 0 010-3.15zm10.717 0a1.575 1.575 0 110 3.15 1.575 1.575 0 010-3.15zm10.717 0a1.575 1.575 0 110 3.15 1.575 1.575 0 010-3.15zm10.717 0a1.575 1.575 0 110 3.15 1.575 1.575 0 010-3.15zm10.717 0a1.575 1.575 0 110 3.15 1.575 1.575 0 010-3.15zm10.717 0a1.575 1.575 0 110 3.15 1.575 1.575 0 010-3.15zm10.717 0a1.575 1.575 0 110 3.15 1.575 1.575 0 010-3.15zm10.717 0a1.575 1.575 0 110 3.15 1.575 1.575 0 010-3.15zm10.717 0a1.575 1.575 0 110 3.15 1.575 1.575 0 010-3.15zm10.717 0a1.575 1.575 0 110 3.15 1.575 1.575 0 010-3.15zm10.717 0a1.575 1.575 0 110 3.15 1.575 1.575 0 010-3.15zm10.717 0a1.575 1.575 0 110 3.15 1.575 1.575 0 010-3.15zm10.717 0a1.575 1.575 0 110 3.15 1.575 1.575 0 010-3.15zm10.718 0a1.575 1.575 0 110 3.15 1.575 1.575 0 010-3.15zm10.717 0a1.575 1.575 0 110 3.15 1.575 1.575 0 010-3.15zm10.717 0a1.575 1.575 0 110 3.15 1.575 1.575 0 010-3.15zm10.717 0a1.575 1.575 0 110 3.15 1.575 1.575 0 010-3.15zm10.717 0a1.575 1.575 0 110 3.15 1.575 1.575 0 010-3.15zm10.717-10.717a1.575 1.575 0 110 3.15 1.575 1.575 0 010-3.15zm-417.966 0a1.575 1.575 0 110 3.15 1.575 1.575 0 010-3.15zm32.151 0a1.575 1.575 0 110 3.15 1.575 1.575 0 010-3.15zm21.434 0a1.575 1.575 0 110 3.15 1.575 1.575 0 010-3.15zm21.435 0a1.575 1.575 0 110 3.15 1.575 1.575 0 010-3.15zm21.434 0a1.575 1.575 0 110 3.15 1.575 1.575 0 010-3.15zm21.434 0a1.575 1.575 0 110 3.15 1.575 1.575 0 010-3.15zm21.434 0a1.575 1.575 0 110 3.15 1.575 1.575 0 010-3.15zm21.434 0a1.575 1.575 0 110 3.15 1.575 1.575 0 010-3.15zm21.434 0a1.575 1.575 0 110 3.15 1.575 1.575 0 010-3.15zm21.434 0a1.575 1.575 0 110 3.15 1.575 1.575 0 010-3.15zm21.435 0a1.575 1.575 0 110 3.15 1.575 1.575 0 010-3.15zm21.434 0a1.575 1.575 0 110 3.15 1.575 1.575 0 010-3.15zm21.434 0a1.575 1.575 0 110 3.15 1.575 1.575 0 010-3.15zm21.434 0a1.575 1.575 0 110 3.15 1.575 1.575 0 010-3.15zm21.434 0a1.575 1.575 0 110 3.15 1.575 1.575 0 010-3.15zm21.434 0a1.575 1.575 0 110 3.15 1.575 1.575 0 010-3.15zm21.434 0a1.575 1.575 0 110 3.15 1.575 1.575 0 010-3.15zm21.435 0a1.575 1.575 0 110 3.15 1.575 1.575 0 010-3.15zm21.434 0a1.575 1.575 0 110 3.15 1.575 1.575 0 010-3.15zm10.717 0a1.575 1.575 0 110 3.15 1.575 1.575 0 010-3.15zm-364.38 0a1.575 1.575 0 110 3.15 1.575 1.575 0 010-3.15zm171.473 0a1.575 1.575 0 110 3.15 1.575 1.575 0 010-3.15zm-107.171 0a1.575 1.575 0 110 3.15 1.575 1.575 0 010-3.15zm128.605 0a1.575 1.575 0 110 3.15 1.575 1.575 0 010-3.15zm-214.342 0a1.575 1.575 0 110 3.15 1.575 1.575 0 010-3.15zm235.776 0a1.575 1.575 0 110 3.15 1.575 1.575 0 010-3.15zm-128.605 0a1.575 1.575 0 110 3.15 1.575 1.575 0 010-3.15zm150.039 0a1.575 1.575 0 110 3.15 1.575 1.575 0 010-3.15zm-214.342 0a1.575 1.575 0 110 3.15 1.575 1.575 0 010-3.15zm235.776 0a1.575 1.575 0 110 3.15 1.575 1.575 0 010-3.15zm-150.039 0a1.575 1.575 0 110 3.15 1.575 1.575 0 010-3.15zm171.473 0a1.575 1.575 0 110 3.15 1.575 1.575 0 010-3.15zm-310.795 0a1.575 1.575 0 110 3.15 1.575 1.575 0 010-3.15zm332.23 0a1.575 1.575 0 110 3.15 1.575 1.575 0 010-3.15zm-171.474 0a1.575 1.575 0 110 3.15 1.575 1.575 0 010-3.15zm192.908 0a1.575 1.575 0 110 3.15 1.575 1.575 0 010-3.15zm-278.644 0a1.575 1.575 0 110 3.15 1.575 1.575 0 010-3.15zm300.078 0a1.575 1.575 0 110 3.15 1.575 1.575 0 010-3.15zm-192.908 0a1.575 1.575 0 110 3.15 1.575 1.575 0 010-3.15zm-192.907-10.717a1.575 1.575 0 110 3.15 1.575 1.575 0 010-3.15zm32.151 0a1.575 1.575 0 110 3.15 1.575 1.575 0 010-3.15zm171.473 0a1.575 1.575 0 110 3.15 1.575 1.575 0 010-3.15zm-160.756 0a1.575 1.575 0 110 3.15 1.575 1.575 0 010-3.15zm53.586 0a1.575 1.575 0 110 3.15 1.575 1.575 0 010-3.15zm-10.717 0a1.575 1.575 0 110 3.15 1.575 1.575 0 010-3.15zm139.322 0a1.575 1.575 0 110 3.15 1.575 1.575 0 010-3.15zm-96.454 0a1.575 1.575 0 110 3.15 1.575 1.575 0 010-3.15zm-117.888 0a1.575 1.575 0 110 3.15 1.575 1.575 0 010-3.15zm160.756 0a1.575 1.575 0 110 3.15 1.575 1.575 0 010-3.15zm75.02 0a1.575 1.575 0 110 3.15 1.575 1.575 0 010-3.15zm-32.151 0a1.575 1.575 0 110 3.15 1.575 1.575 0 010-3.15zm-96.454 0a1.575 1.575 0 110 3.15 1.575 1.575 0 010-3.15zm139.322 0a1.575 1.575 0 110 3.15 1.575 1.575 0 010-3.15zm10.717 0a1.575 1.575 0 110 3.15 1.575 1.575 0 010-3.15zm32.151 0a1.575 1.575 0 110 3.15 1.575 1.575 0 010-3.15zm-246.493 0a1.575 1.575 0 110 3.15 1.575 1.575 0 010-3.15zm289.361 0a1.575 1.575 0 110 3.15 1.575 1.575 0 010-3.15zm-53.585 0a1.575 1.575 0 110 3.15 1.575 1.575 0 010-3.15zm96.454 0a1.575 1.575 0 110 3.15 1.575 1.575 0 010-3.15zm-246.493 0a1.575 1.575 0 110 3.15 1.575 1.575 0 010-3.15zm-117.888 0a1.575 1.575 0 110 3.15 1.575 1.575 0 010-3.15zm289.361 0a1.575 1.575 0 110 3.15 1.575 1.575 0 010-3.15zm-203.624 0a1.575 1.575 0 110 3.15 1.575 1.575 0 010-3.15zm310.795 0a1.575 1.575 0 110 3.15 1.575 1.575 0 010-3.15zm-225.059 0a1.575 1.575 0 110 3.15 1.575 1.575 0 010-3.15zm139.322 0a1.575 1.575 0 110 3.15 1.575 1.575 0 010-3.15zm-53.585 0a1.575 1.575 0 110 3.15 1.575 1.575 0 010-3.15zm-117.888 0a1.575 1.575 0 110 3.15 1.575 1.575 0 010-3.15zm203.625 0a1.575 1.575 0 110 3.15 1.575 1.575 0 010-3.15zm-10.718 0a1.575 1.575 0 110 3.15 1.575 1.575 0 010-3.15zm-289.36 0a1.575 1.575 0 110 3.15 1.575 1.575 0 010-3.15zm10.717 0a1.575 1.575 0 110 3.15 1.575 1.575 0 010-3.15zm160.756 0a1.575 1.575 0 110 3.15 1.575 1.575 0 010-3.15zm139.322 0a1.575 1.575 0 110 3.15 1.575 1.575 0 010-3.15zm32.15 0a1.575 1.575 0 110 3.15 1.575 1.575 0 010-3.15zm-225.058 0a1.575 1.575 0 110 3.15 1.575 1.575 0 010-3.15zm139.322 0a1.575 1.575 0 110 3.15 1.575 1.575 0 010-3.15zm75.02 0a1.575 1.575 0 110 3.15 1.575 1.575 0 010-3.15zm-246.493 0a1.575 1.575 0 110 3.15 1.575 1.575 0 010-3.15zm257.21-10.717a1.575 1.575 0 110 3.15 1.575 1.575 0 010-3.15zm-75.02 0a1.575 1.575 0 110 3.15 1.575 1.575 0 010-3.15zm-171.473 0a1.575 1.575 0 110 3.15 1.575 1.575 0 010-3.15zm-139.322 0a1.575 1.575 0 110 3.15 1.575 1.575 0 010-3.15zm32.151 0a1.575 1.575 0 110 3.15 1.575 1.575 0 010-3.15zm171.474 0a1.575 1.575 0 110 3.15 1.575 1.575 0 010-3.15zm-160.757 0a1.575 1.575 0 110 3.15 1.575 1.575 0 010-3.15zm53.586 0a1.575 1.575 0 110 3.15 1.575 1.575 0 010-3.15zm-10.717 0a1.575 1.575 0 110 3.15 1.575 1.575 0 010-3.15zm139.322 0a1.575 1.575 0 110 3.15 1.575 1.575 0 010-3.15zm-96.454 0a1.575 1.575 0 110 3.15 1.575 1.575 0 010-3.15zm-117.888 0a1.575 1.575 0 110 3.15 1.575 1.575 0 010-3.15zm160.756 0a1.575 1.575 0 110 3.15 1.575 1.575 0 010-3.15zm75.02 0a1.575 1.575 0 110 3.15 1.575 1.575 0 010-3.15zm-32.151 0a1.575 1.575 0 110 3.15 1.575 1.575 0 010-3.15zm-96.454 0a1.575 1.575 0 110 3.15 1.575 1.575 0 010-3.15zm139.322 0a1.575 1.575 0 110 3.15 1.575 1.575 0 010-3.15zm10.717 0a1.575 1.575 0 110 3.15 1.575 1.575 0 010-3.15zm32.151 0a1.575 1.575 0 110 3.15 1.575 1.575 0 010-3.15zm-246.492 0a1.575 1.575 0 110 3.15 1.575 1.575 0 010-3.15zm289.36 0a1.575 1.575 0 110 3.15 1.575 1.575 0 010-3.15zm-53.585 0a1.575 1.575 0 110 3.15 1.575 1.575 0 010-3.15zm-182.19 0a1.575 1.575 0 110 3.15 1.575 1.575 0 010-3.15zm-117.888 0a1.575 1.575 0 110 3.15 1.575 1.575 0 010-3.15zm203.625 0a1.575 1.575 0 110 3.15 1.575 1.575 0 010-3.15zm139.321 0a1.575 1.575 0 110 3.15 1.575 1.575 0 010-3.15zm-53.585 0a1.575 1.575 0 110 3.15 1.575 1.575 0 010-3.15zm-117.888 0a1.575 1.575 0 110 3.15 1.575 1.575 0 010-3.15zm203.625 0a1.575 1.575 0 110 3.15 1.575 1.575 0 010-3.15zm-10.717 0a1.575 1.575 0 110 3.15 1.575 1.575 0 010-3.15zm-289.361 0a1.575 1.575 0 110 3.15 1.575 1.575 0 010-3.15zm10.717 0a1.575 1.575 0 110 3.15 1.575 1.575 0 010-3.15zm160.756 0a1.575 1.575 0 110 3.15 1.575 1.575 0 010-3.15zm139.322 0a1.575 1.575 0 110 3.15 1.575 1.575 0 010-3.15zm-396.532 0a1.575 1.575 0 110 3.15 1.575 1.575 0 010-3.15zm203.624 0a1.575 1.575 0 110 3.15 1.575 1.575 0 010-3.15zm139.322 0a1.575 1.575 0 110 3.15 1.575 1.575 0 010-3.15zm75.02 0a1.575 1.575 0 110 3.15 1.575 1.575 0 010-3.15zm-246.493 0a1.575 1.575 0 110 3.15 1.575 1.575 0 010-3.15zm-128.605 0a1.575 1.575 0 110 3.15 1.575 1.575 0 010-3.15zM1141.293 20a1.575 1.575 0 110 3.15 1.575 1.575 0 010-3.15zm214.34 0a1.575 1.575 0 110 3.15 1.575 1.575 0 010-3.15zm10.718 0a1.575 1.575 0 110 3.15 1.575 1.575 0 010-3.15zm-203.625 0a1.575 1.575 0 110 3.15 1.575 1.575 0 010-3.15zm214.342 0a1.575 1.575 0 110 3.15 1.575 1.575 0 010-3.15zm-192.908 0a1.575 1.575 0 110 3.15 1.575 1.575 0 010-3.15zm203.625 0a1.575 1.575 0 110 3.15 1.575 1.575 0 010-3.15zm-182.19 0a1.575 1.575 0 110 3.15 1.575 1.575 0 010-3.15zm192.907 0a1.575 1.575 0 110 3.15 1.575 1.575 0 010-3.15zm-171.473 0a1.575 1.575 0 110 3.15 1.575 1.575 0 010-3.15zm182.19 0a1.575 1.575 0 110 3.15 1.575 1.575 0 010-3.15zm-160.756 0a1.575 1.575 0 110 3.15 1.575 1.575 0 010-3.15zm171.473 0a1.575 1.575 0 110 3.15 1.575 1.575 0 010-3.15zm-150.039 0a1.575 1.575 0 110 3.15 1.575 1.575 0 010-3.15zm160.756 0a1.575 1.575 0 110 3.15 1.575 1.575 0 010-3.15zm-139.322 0a1.575 1.575 0 110 3.15 1.575 1.575 0 010-3.15zm150.04 0a1.575 1.575 0 110 3.15 1.575 1.575 0 010-3.15zm-128.606 0a1.575 1.575 0 110 3.15 1.575 1.575 0 010-3.15zm139.322 0a1.575 1.575 0 110 3.15 1.575 1.575 0 010-3.15zM1334.2 20a1.575 1.575 0 110 3.15 1.575 1.575 0 010-3.15zm128.605 0a1.575 1.575 0 110 3.15 1.575 1.575 0 010-3.15zm-310.795 0a1.575 1.575 0 110 3.15 1.575 1.575 0 010-3.15zm321.512 0a1.575 1.575 0 110 3.15 1.575 1.575 0 010-3.15zm-278.644 0a1.575 1.575 0 110 3.15 1.575 1.575 0 010-3.15zm289.361 0a1.575 1.575 0 110 3.15 1.575 1.575 0 010-3.15zm-246.492 0a1.575 1.575 0 110 3.15 1.575 1.575 0 010-3.15zm257.21 0a1.575 1.575 0 110 3.15 1.575 1.575 0 010-3.15zm-214.342 0a1.575 1.575 0 110 3.15 1.575 1.575 0 010-3.15zm225.059 0a1.575 1.575 0 110 3.15 1.575 1.575 0 010-3.15zm-182.19 0a1.575 1.575 0 110 3.15 1.575 1.575 0 010-3.15zm192.907 0a1.575 1.575 0 110 3.15 1.575 1.575 0 010-3.15zm-342.947 0a1.575 1.575 0 110 3.15 1.575 1.575 0 010-3.15zm353.664 0a1.575 1.575 0 110 3.15 1.575 1.575 0 010-3.15zm-267.927 0a1.575 1.575 0 110 3.15 1.575 1.575 0 010-3.15zm278.644 0a1.575 1.575 0 110 3.15 1.575 1.575 0 010-3.15zm-407.249 0a1.575 1.575 0 110 3.15 1.575 1.575 0 010-3.15zm417.966 0a1.575 1.575 0 110 3.15 1.575 1.575 0 010-3.15zm-246.493 0a1.575 1.575 0 110 3.15 1.575 1.575 0 010-3.15zm42.869 0a1.575 1.575 0 110 3.15 1.575 1.575 0 010-3.15zm-128.605 0a1.575 1.575 0 110 3.15 1.575 1.575 0 010-3.15z" opacity=".607"/><path fill="url(#b)" fill-rule="nonzero" d="M1513.955 152.746c-21.304 4.5-22.375-3.595-64.457-31.369-44.334-29.257-111.258-9.864-131.452 51.714-6.888 21.008-7.103 37.978-11.813 62.35-7.412 38.352-33.226 49.395-55.444 61.76-24.222 13.48-88.204 39.48-75.018 117.748 7.61 45.171 41.243 79.944 90.695 76.096 26.996-2.1 51.375-13.31 77.142-23.073 89.716-33.99 85.731-27.247 180.462-16.56.175-2.587 3.72.074 17.398-1.169 63.58-5.78 70.375-56.124 80.29-112.23 14.83-83.918 70.589-89.817 82.832-137.67 3.85-15.033-1.82-35.451-20.742-50.613-53.665-43.003-131.98-4.996-169.893 3.016z" opacity=".044"/><g fill-rule="nonzero"><path fill="url(#c)" d="M139.207 278.56C72.77 278.523 15.61 231.565 2.678 166.4-10.255 101.233 24.64 36.006 86.026 10.6c61.386-25.406 132.17-3.917 169.073 51.328 36.902 55.245 29.646 128.863-17.332 175.84a138.46 138.46 0 01-98.56 40.793zm0-278.001c-56.078 0-106.635 33.78-128.095 85.59-21.46 51.809-9.598 111.444 30.055 151.097 39.653 39.653 99.288 51.516 151.098 30.056 51.81-21.46 85.59-72.017 85.59-128.095C277.768 62.67 215.745.645 139.207.56z" transform="translate(1402 222)"/><path fill="url(#d)" d="M139.207 261.185c-49.336 0-93.813-29.719-112.693-75.299-18.88-45.58-8.444-98.045 26.441-132.93 34.886-34.886 87.35-45.322 132.93-26.442 45.58 18.88 75.3 63.358 75.3 112.693-.077 67.335-54.643 121.902-121.978 121.978zm0-243.251c-49.05 0-93.272 29.547-112.042 74.864-18.771 45.316-8.396 97.478 26.288 132.162 34.684 34.684 86.846 45.06 132.163 26.29 45.317-18.772 74.864-62.992 74.864-112.043-.076-66.946-54.327-121.198-121.273-121.273z" transform="translate(1402 222)"/><path fill="url(#d)" d="M139.207 243.81c-57.77 0-104.603-46.832-104.603-104.603 0-57.77 46.832-104.603 104.603-104.603 57.77 0 104.603 46.833 104.603 104.603-.066 57.744-46.86 104.538-104.603 104.603zm0-208.501c-57.382 0-103.898 46.517-103.898 103.898 0 57.381 46.516 103.898 103.898 103.898 57.381 0 103.898-46.516 103.898-103.898-.065-57.354-46.544-103.833-103.898-103.898z" transform="translate(1402 222)"/><path fill="url(#e)" d="M139.207 226.435c-35.28 0-67.087-21.252-80.588-53.847-13.502-32.595-6.039-70.113 18.908-95.06 24.947-24.947 62.465-32.41 95.06-18.909 32.595 13.501 53.847 45.308 53.847 80.588-.054 48.152-39.076 87.173-87.227 87.228zm0-173.751c-34.996 0-66.545 21.08-79.938 53.412-13.392 32.331-5.99 69.546 18.756 94.292 24.745 24.746 61.96 32.148 94.292 18.756 32.332-13.392 53.413-44.941 53.413-79.937-.054-47.763-38.76-86.469-86.523-86.523z" transform="translate(1402 222)"/><path fill="url(#f)" d="M139.207 209.06c-28.253 0-53.724-17.02-64.536-43.121-10.812-26.103-4.836-56.147 15.142-76.125s50.023-25.954 76.125-15.142c26.102 10.811 43.121 36.282 43.121 64.535-.043 38.56-31.292 69.809-69.852 69.853zm0-139.001c-27.968 0-53.182 16.847-63.885 42.686-10.703 25.839-4.787 55.58 14.99 75.357 19.775 19.776 49.517 25.692 75.356 14.99 25.84-10.703 42.687-35.917 42.687-63.885-.044-38.171-30.977-69.105-69.148-69.148z" transform="translate(1402 222)"/></g><g fill-rule="nonzero" opacity=".316"><path fill="url(#g)" d="M199.08 398.372c-95.01-.056-176.754-67.21-195.25-160.403-18.496-93.193 31.408-186.475 119.197-222.81 87.788-36.333 189.018-5.601 241.792 73.405s42.397 184.287-24.786 251.47a198.012 198.012 0 01-140.952 58.338zm0-397.573c-80.197 0-152.498 48.31-183.188 122.403-30.69 74.092-13.727 159.377 42.981 216.086 56.709 56.708 141.993 73.672 216.086 42.982 74.093-30.69 122.403-102.991 122.403-183.189C397.24 89.624 308.537.923 199.081.8z" transform="scale(-1 1) rotate(-75 -21.226 298.268)"/><path fill="url(#d)" d="M199.08 373.523c-70.555 0-134.162-42.502-161.163-107.686-27-65.184-12.075-140.215 37.815-190.105 49.89-49.89 124.92-64.814 190.104-37.814 65.185 27 107.686 90.608 107.686 161.163-.11 96.296-78.145 174.332-174.441 174.442zm0-347.876c-70.147 0-133.387 42.256-160.232 107.064-26.844 64.808-12.006 139.405 37.596 189.006 49.602 49.602 124.199 64.44 189.007 37.596s107.063-90.084 107.063-160.232c-.108-95.74-77.693-173.326-173.433-173.434z" transform="scale(-1 1) rotate(-75 -21.226 298.268)"/><path fill="url(#d)" d="M199.08 348.674c-82.618 0-149.593-66.975-149.593-149.593S116.463 49.488 199.081 49.488s149.593 66.975 149.593 149.593c-.094 82.58-67.014 149.5-149.593 149.593zm0-298.179c-82.061 0-148.585 66.525-148.585 148.586 0 82.062 66.524 148.586 148.586 148.586 82.061 0 148.585-66.524 148.585-148.586-.092-82.023-66.562-148.493-148.585-148.586z" transform="scale(-1 1) rotate(-75 -21.226 298.268)"/><path fill="url(#h)" d="M199.08 323.826c-50.454 0-95.94-30.393-115.25-77.007-19.308-46.614-8.635-100.269 27.042-135.946 35.677-35.677 89.332-46.35 135.946-27.041 46.614 19.308 77.007 64.794 77.007 115.25-.078 68.861-55.882 124.666-124.744 124.744zm0-248.482c-50.047 0-95.166 30.147-114.318 76.384-19.153 46.238-8.566 99.46 26.822 134.848 35.389 35.39 88.61 45.976 134.848 26.824 46.238-19.153 76.386-64.272 76.386-114.319-.078-68.306-55.431-123.66-123.737-123.737z" transform="scale(-1 1) rotate(-75 -21.226 298.268)"/><path fill="url(#i)" d="M199.08 298.978c-40.404 0-76.83-24.339-92.292-61.668-15.462-37.329-6.916-80.296 21.654-108.867 28.57-28.57 71.538-37.117 108.867-21.655 37.329 15.463 61.668 51.889 61.668 92.293-.062 55.146-44.75 99.834-99.896 99.897zm0-198.786c-39.996 0-76.055 24.093-91.361 61.046-15.307 36.952-6.846 79.486 21.436 107.768 28.282 28.282 70.816 36.743 107.768 21.437 36.953-15.306 61.046-51.365 61.046-91.362-.061-54.59-44.3-98.827-98.888-98.89z" transform="scale(-1 1) rotate(-75 -21.226 298.268)"/></g><path fill="url(#j)" fill-rule="nonzero" d="M367.592-111.27c-10.388-1.758-20.823-3.23-31.25-4.747-72.045-10.473-71.852-71.2-114.482-68.198-28.258 1.99-50.375 47.398-70.463 21.7-44.6-57.063-94.983-21.689-109.104 25.006-7.202 23.812-3.61 38.654-4.663 71.874C36.017-14.795-24.22-28.549-72.4 1.03c-45.673 28.04-46.762 77.853-13.471 103.146 52.002 39.51 109.856-10.562 154.85 29.343 80.436 71.342 90.953 24.13 153.852-4.974 54.633-25.276 91.282 6.134 141.836 4.883 41.074 1.332 72.493-13.41 96.285-44.255 60.97-79.042 3.21-184.09-93.36-200.442z" opacity=".027"/><path fill="url(#k)" fill-rule="nonzero" d="M302.99 260l51.962 30v60l-51.962 30-51.961-30v-60l51.961-30zm0 6.159l-46.629 26.92v53.841l46.63 26.92 46.627-26.92v-53.841l-46.628-26.92z" opacity=".263"/><path fill="url(#l)" fill-rule="nonzero" d="M1195.67 300l34.64 20v40l-34.64 20-34.641-20v-40l34.64-20zm0 4.106l-31.086 17.946v35.895l31.086 17.946 31.085-17.946v-35.895l-31.085-17.946z" opacity=".263"/><path fill="url(#m)" fill-rule="nonzero" d="M1007.01-20l25.98 15v30l-25.98 15-25.981-15V-5l25.98-15zm0 3.08L983.695-3.46v26.92l23.315 13.46 23.314-13.46V-3.46l-23.314-13.46z" opacity=".263"/><path fill="url(#n)" fill-rule="nonzero" opacity=".165" d="M596.617 20l15.589 9v18l-15.589 9-15.588-9V29z"/><path fill="url(#o)" fill-rule="nonzero" opacity=".114" transform="rotate(-24 1593.938 208)" d="M1593.938 170l32.909 19v38l-32.909 19-32.909-19v-38z"/><path fill="url(#o)" fill-rule="nonzero" opacity=".114" transform="rotate(-24 5.909 288)" d="M5.909 250l32.909 19v38L5.909 326-27 307v-38z"/><path fill="url(#p)" fill-rule="nonzero" opacity=".461" transform="rotate(-45 337.011 58.412)" d="M233.122 55.889L440.9 58.935v2l-207.778-3.046z"/><path fill="url(#q)" fill-rule="nonzero" opacity=".461" transform="rotate(-45 1468.151 169.256)" d="M1382.66 168.756h170.982v1H1382.66z"/><path fill="url(#r)" fill-rule="nonzero" opacity=".461" transform="rotate(-45 869.002 80.276)" d="M751.402 79.526h235.201v1.5H751.402z"/><path fill="url(#s)" fill-rule="nonzero" opacity=".461" transform="rotate(-45 423.946 196.157)" d="M338.9 195.157h170.092v2H338.9z"/><circle cx="1318.251" cy="165.251" r="43.251" fill="url(#t)" fill-rule="nonzero" opacity=".062" transform="rotate(-76.717 1318.251 165.251)"/><circle cx="522.32" cy="274.66" r="13.079" fill="url(#t)" fill-rule="nonzero" opacity=".142" transform="rotate(-76.717 522.32 274.66)"/><circle cx="1084.079" cy="26.079" r="13.079" fill="url(#t)" fill-rule="nonzero" opacity=".142" transform="rotate(-76.717 1084.079 26.079)"/><circle cx="355.736" cy="126.736" r="26.736" fill="url(#t)" fill-rule="nonzero" opacity=".062"/><g transform="translate(853 67)"><use fill="#000" filter="url(#u)" xlink:href="#v"/><circle cx="108.266" cy="108.266" r="107.766" fill="url(#w)" stroke="url(#t)" stroke-linejoin="square"/><path fill="url(#x)" d="M109.592 57.64c-.145-1.766-.09-3.545-.35-5.304-.24-1.622-.415-3.257-.876-4.839-.027-.165-.04-.334-.081-.496-.977-3.858-2.466-7.504-4.41-10.973-1.948-3.478-4.36-6.592-7.115-9.45-.22-.228-.378-.424-.295-.818.87-4.168.06-8.072-1.876-11.793-.143-.275-.317-.39-.632-.4-4.01-.14-7.784.634-11.178 2.894-.255.17-.455.191-.741.069-3.52-1.503-7.16-2.583-10.949-3.126-.44-.063-.674-.242-.821-.691-.962-2.932-2.582-5.464-4.685-7.697C63.885 3.213 61.922 1.758 59.806.5h-.252c-.081.247-.327.304-.507.428-2.086 1.438-3.989 3.085-5.622 5.03-2.143 2.552-3.884 5.336-4.736 8.608-.082.318-.296.354-.54.428-4.277 1.297-8.23 3.288-11.967 5.728-.52.34-.9.464-1.542.212-2.608-1.027-5.334-1.558-8.134-1.72-4.982-.29-9.749.603-14.333 2.562-.378.162-.528.371-.541.796-.083 2.663-.044 5.316.368 7.956.803 5.154 2.524 9.945 5.545 14.219.21.296.235.527.12.86-.42 1.21-.905 2.402-1.155 3.667-.074.216-.161.428-.22.648-.673 2.546-1.096 5.14-1.453 7.747-.042.307-.073.573-.434.756-3.991 2.028-7.26 4.925-9.927 8.519-1.19 1.605-2.273 3.282-3.056 5.137-.59 1-.96 2.095-1.375 3.172-.116.302.01.463.183.661a35.561 35.561 0 003.43 3.436c4.852 4.2 10.344 7.04 16.742 7.93.255.035.352.172.457.36a46.96 46.96 0 006.788 9.31c.275.293.283.537.168.893-.237.733-.548 1.45-.592 2.235-.324 1.008-.438 2.055-.537 3.102-.395 4.163.11 8.204 1.61 12.115.148.386.363.486.748.489 1.406.01 2.806-.056 4.203-.219 5.09-.593 9.756-2.313 13.925-5.338.34-.247.62-.308 1.027-.174 4.898 1.609 9.92 2.458 15.078 2.273 1.258-.046 2.244.15 2.834 1.36.018.036.055.063.083.094 3.27 3.733 7.468 5.745 12.24 6.7.408.081.658-.086.913-.377 1.493-1.698 2.809-3.52 3.842-5.538 1.357-2.651 2.301-5.435 2.381-8.443.018-.693.234-1.096.767-1.493 1.751-1.303 3.51-2.605 4.955-4.27 1.876-1.857 3.403-3.997 4.91-6.152.162-.232.297-.402.64-.394 4.276.106 7.972-1.424 11.269-4.08.344-.278.43-.563.347-.979-.876-4.353-2.667-8.194-6.115-11.108-.288-.244-.35-.504-.316-.884.097-1.09.25-2.181.15-3.281.023-1.622-.028-3.22-.304-4.841-.414-2.425-.89-4.813-1.811-7.095-1.003-2.482-2.21-4.848-3.904-6.935-.117-.173-.223-.354-.352-.518-5.073-6.413-11.57-10.375-19.681-11.479-2.783-.379-5.594-.481-8.382.022-6.452 1.164-11.564 4.482-15.385 9.822-2.003 2.798-3.233 5.925-3.76 9.333-.429 2.04-.47 4.098-.2 6.158.708 5.385 3.148 9.776 7.662 12.808 4.88 3.277 10.117 4.157 15.684 1.84.8-.333 1.52-.801 2.195-1.341.437-.351.592-.822.426-1.358-.156-.504-.572-.694-1.056-.771-.351-.056-.655.078-.962.22-4.32 1.987-8.48 1.473-12.237-1.246-4.458-3.225-6.178-7.704-5.127-13.196.175-.914.47-1.79.71-2.683.047-.093.1-.183.14-.278 2.952-7.026 9.926-10.79 17.406-9.4 2.327.433 4.493 1.294 6.553 2.446 1.081.757 2.175 1.495 3.149 2.397 3.393 3.143 5.39 7.006 6.074 11.603.216 1.45.139 2.893.208 4.338-.092.793-.157 1.59-.28 2.377-.955 6.107-3.81 11.152-8.464 15.154-4.014 3.451-8.66 5.466-13.926 5.97-3.16.302-6.275-.074-9.348-.796C46.587 93.537 39 87.212 34.14 77.458c-.856-1.718-1.367-3.57-2.01-5.37-.576-2-.893-4.039-.985-6.12-.174-3.958.222-7.858 1.107-11.714.385-1.679.94-3.31 1.408-4.965 1.169-3.192 2.66-6.22 4.543-9.047 2.604-3.907 5.765-7.268 9.89-9.534 5.492-3.015 11.424-4.62 17.663-4.954 3.713-.199 7.415.073 11.051.899 8.481 1.926 15.52 6.296 21.296 12.806 2.286 2.577 4.175 5.422 5.824 8.441.424.867.874 1.723 1.267 2.604 1.076 2.407 1.856 4.919 2.563 7.456.177.634.624.976 1.116.9.507-.078.778-.5.72-1.22" transform="translate(49 42.5)"/><g fill="#131131" fill-rule="nonzero" filter="url(#y)" transform="translate(254 86)"><path d="M9.672 44.702V26.846h10.354c4.877 0 8.67-1.188 11.377-3.565 2.707-2.377 4.061-5.57 4.061-9.579 0-4.05-1.333-7.254-3.999-9.61C28.799 1.736 24.986.558 20.026.558H0v44.144h9.672zm9.114-25.234H9.672V7.998h9.114c2.604 0 4.516.496 5.735 1.488 1.22.992 1.829 2.418 1.829 4.278 0 1.819-.62 3.224-1.86 4.216-1.24.992-3.141 1.488-5.704 1.488zm52.44 25.234v-7.874H51.51V.558h-9.672v44.144h29.388zm27.391.558a47.2 47.2 0 005.921-.372 40.083 40.083 0 005.642-1.116c1.798-.496 3.42-1.095 4.867-1.798V20.336H97.625v6.758h8.68v9.775l-.493.129c-.442.11-.888.208-1.339.296l-.679.123a28.448 28.448 0 01-4.743.403c-4.505 0-7.863-1.271-10.075-3.813-2.211-2.542-3.317-6.355-3.317-11.439 0-4.96 1.065-8.68 3.193-11.16 2.129-2.48 5.322-3.72 9.58-3.72 2.273 0 4.37.33 6.292.992 1.922.661 3.937 1.736 6.045 3.224l3.1-6.944c-1.777-1.57-4.05-2.79-6.82-3.658C104.28.434 101.325 0 98.183 0c-4.546 0-8.494.91-11.842 2.728-3.348 1.819-5.941 4.423-7.78 7.812-1.84 3.39-2.76 7.399-2.76 12.028 0 4.712.92 8.763 2.76 12.152 1.839 3.39 4.463 5.993 7.873 7.812s7.471 2.728 12.183 2.728z"/></g></g><g transform="translate(522 67)"><use fill="#000" filter="url(#z)" xlink:href="#A"/><circle cx="108.266" cy="108.266" r="107.766" fill="url(#w)" stroke="url(#t)" stroke-linejoin="square"/><path fill="#FDFDFD" d="M60.645 77.089c-1.85-6.538-.414-12.239 4.382-17.049 2.465-2.473 5.502-3.89 8.93-4.455.858-.142 1.729-.27 2.311-.21 3.77.061 6.956 1.017 9.826 3 .413.285.542.546.438 1.069-.985 4.97-1.932 9.948-2.892 14.923-.469 2.435-.94 4.868-1.411 7.302-.026.134-.052.268-.081.4-.155.684-.155.689-.836.528-6.579-1.55-13.156-3.108-19.738-4.646-.51-.12-.782-.343-.93-.862m1.698 45.731c-1.274 1.152-2.564 2.288-3.822 3.458-.346.32-.63.405-1.08.205-7.652-3.403-12.357-9.179-14.043-17.392-.12-.586-.222-1.18-.273-1.775-.069-.787-.08-1.58-.124-2.566.121-6.532 2.646-12.197 7.508-16.827 2.22-2.114 4.78-3.695 7.642-4.792.55-.212 1.064-.269 1.662-.126 7.236 1.727 14.477 3.43 21.72 5.123.525.123.83.366 1.059.868 1.58 3.444 3.192 6.873 4.798 10.304.34.73.303.6-.225 1.078-3.538 3.201-7.08 6.402-10.62 9.602l-14.202 12.84"/><g transform="translate(59.9 103.383)"><mask id="C" fill="#fff"><use xlink:href="#B"/></mask><path fill="#FDFDFD" d="M69.042 26.98c.197.377.277.714.19 1.158a4863.767 4863.767 0 00-4.749 24.808c-.17.907-.478 1.69-1.037 2.432-4.72 6.265-10.813 10.534-18.34 12.763-3.536 1.047-7.15 1.53-10.824 1.384-8.216-.329-15.493-3.13-21.727-8.518-5.372-4.641-8.987-10.41-10.86-17.257a32.619 32.619 0 01-1.17-9.31c-.04-1.986.148-4.045.505-6.092.076-.438.258-.743.577-1.03 2.68-2.404 5.35-4.82 8.023-7.234 4.657-4.203 9.315-8.406 13.973-12.607 2.472-2.228 4.957-4.444 7.41-6.69.393-.361.7-.371 1.153-.163 4.385 2.016 8.777 4.015 13.17 6.017 5.433 2.476 10.865 4.958 16.308 7.415.607.274.998.653 1.304 1.248 2.01 3.904 4.052 7.79 6.094 11.677" mask="url(#C)"/></g><path fill="#FDFDFD" d="M155.429 139.371c3.073 9.549-3.048 19.711-12.948 21.48-1.024.182-2.052.28-2.808.284-3.701-.096-6.812-1.123-9.631-3.061-.423-.29-.541-.584-.444-1.08 1.39-7.088 2.765-14.178 4.142-21.266.089-.456.171-.912.262-1.367.122-.606.126-.61.752-.464 2.735.637 5.47 1.274 8.203 1.916 3.848.905 7.692 1.824 11.545 2.702.53.12.765.355.927.856"/><g transform="translate(86.55 43.583)"><mask id="E" fill="#fff"><use xlink:href="#D"/></mask><path fill="#FDFDFD" d="M.657 42.63c-.195-.415-.223-.803-.133-1.258 1.238-6.337 2.456-12.678 3.68-19.018.433-2.247.871-4.493 1.296-6.741a1.83 1.83 0 01.316-.742c2.993-4.227 6.72-7.651 11.215-10.228 3.927-2.251 8.14-3.7 12.625-4.273 6.56-.836 12.891.044 18.919 2.812 7.487 3.44 13.078 8.872 16.802 16.211 1.805 3.557 2.909 7.335 3.382 11.3.17 1.41.192 2.827.29 4.174-.095 2.137-.177 4.205-.582 6.247-.087.438-.273.731-.595 1.013-4.556 3.986-9.105 7.982-13.655 11.975-5.473 4.803-10.95 9.6-16.412 14.415-.382.337-.667.407-1.142.19-6.94-3.18-13.89-6.34-20.838-9.505-2.929-1.334-5.853-2.675-8.788-3.994-.422-.19-.701-.446-.9-.874A2332.138 2332.138 0 00.657 42.63" mask="url(#E)"/></g><g transform="translate(127.5 89.733)"><mask id="G" fill="#fff"><use xlink:href="#F"/></mask><path fill="#FDFDFD" d="M42.473 10.293c2.026 3.555 3.042 7.39 3.027 12.828-.258 6.747-3.615 13.184-10.226 17.892-1.61 1.146-3.368 2.007-5.219 2.688a1.83 1.83 0 01-1.105.072 9587.197 9587.197 0 00-22.055-5.14c-.419-.096-.71-.27-.922-.687-1.837-3.593-3.697-7.173-5.556-10.754-.352-.678-.262-.596.198-.999L23.629 6.025c2.112-1.852 4.238-3.687 6.33-5.563.41-.367.725-.414 1.22-.2 4.872 2.103 8.665 5.42 11.294 10.031" mask="url(#G)"/></g><path fill="#00BFB2" d="M129.132 131.521a4793.774 4793.774 0 00-4.749 24.808c-.171.907-.477 1.69-1.037 2.432-4.72 6.265-10.813 10.534-18.34 12.763-3.536 1.047-7.15 1.53-10.824 1.383-8.216-.327-15.492-3.13-21.728-8.517-5.37-4.641-8.987-10.41-10.859-17.257a32.573 32.573 0 01-1.17-9.31c-.04-1.986.148-4.044.505-6.092a1.68 1.68 0 01.578-1.03c2.68-2.404 5.348-4.821 8.022-7.234 4.657-4.202 9.314-8.405 13.974-12.607 2.47-2.228 4.955-4.444 7.409-6.69.393-.361.7-.371 1.152-.163 4.386 2.016 8.779 4.015 13.17 6.017 5.434 2.476 10.865 4.959 16.309 7.415.607.274.999.653 1.305 1.248 2.008 3.904 4.05 7.79 6.093 11.677.197.376.277.713.19 1.157"/><path fill="#FFD100" d="M155.6 78.45c-.096 2.137-.178 4.205-.583 6.247-.087.439-.273.732-.594 1.013-4.557 3.986-9.106 7.982-13.656 11.975-5.473 4.802-10.95 9.6-16.411 14.415-.383.337-.669.407-1.142.19-6.941-3.18-13.89-6.34-20.839-9.505-2.929-1.334-5.854-2.675-8.788-3.994-.423-.19-.701-.447-.9-.874a2332.033 2332.033 0 00-5.48-11.704c-.196-.416-.222-.804-.133-1.259 1.238-6.336 2.456-12.677 3.68-19.017.433-2.247.872-4.493 1.296-6.741.053-.278.154-.514.315-.741 2.994-4.228 6.72-7.652 11.217-10.229 3.926-2.251 8.139-3.7 12.624-4.272 6.56-.838 12.891.043 18.919 2.81 7.487 3.44 13.078 8.873 16.802 16.213 1.805 3.556 2.91 7.334 3.382 11.299.17 1.41.193 2.827.29 4.174"/><path fill="#007AA5" d="M173 112.855c-.258 6.746-3.615 13.183-10.226 17.89-1.61 1.148-3.368 2.008-5.218 2.69a1.833 1.833 0 01-1.107.07 9940.261 9940.261 0 00-22.054-5.139c-.419-.096-.71-.27-.922-.687-1.836-3.593-3.697-7.173-5.555-10.754-.353-.679-.264-.595.197-.998l23.013-20.17c2.114-1.85 4.24-3.687 6.33-5.562.41-.366.726-.413 1.222-.2 4.87 2.103 8.663 5.42 11.293 10.031 2.026 3.555 3.042 7.39 3.027 12.829"/><g transform="translate(43 82.583)"><mask id="I" fill="#fff"><use xlink:href="#H"/></mask><path fill="#00A9E6" d="M44.165 17.795l-10.62 9.602-14.202 12.84c-1.275 1.152-2.565 2.288-3.823 3.458-.346.32-.631.405-1.08.205C6.788 40.497 2.082 34.721.398 26.508c-.121-.586-.223-1.18-.274-1.775-.068-.787-.08-1.58-.124-2.566C.12 15.635 2.645 9.97 7.507 5.34c2.22-2.113 4.78-3.694 7.643-4.791.55-.212 1.065-.269 1.663-.126 7.234 1.727 14.477 3.43 21.72 5.123.524.123.828.366 1.058.868 1.58 3.444 3.193 6.873 4.798 10.304.341.73.303.6-.224 1.078" mask="url(#I)"/></g><path fill="#FF3A9A" d="M86.532 59.444c-.985 4.97-1.932 9.948-2.892 14.923-.469 2.435-.94 4.868-1.411 7.302-.026.134-.052.268-.082.4-.153.684-.154.689-.835.528-6.58-1.55-13.156-3.108-19.738-4.646-.51-.12-.782-.343-.93-.862-1.849-6.538-.413-12.239 4.383-17.049 2.465-2.473 5.502-3.89 8.931-4.455.857-.142 1.728-.27 2.31-.21 3.77.061 6.956 1.017 9.826 3 .413.285.542.546.438 1.069"/><path fill="#82CC02" d="M142.48 160.85c-1.023.183-2.05.28-2.807.286-3.702-.097-6.811-1.124-9.63-3.062-.425-.291-.542-.585-.445-1.08 1.39-7.088 2.765-14.178 4.142-21.266.088-.456.17-.911.262-1.366.122-.606.126-.611.752-.466 2.734.638 5.469 1.275 8.202 1.918 3.848.903 7.692 1.824 11.546 2.702.53.12.765.354.926.856 3.074 9.548-3.047 19.71-12.948 21.478"/></g><g fill="#131131" fill-rule="nonzero" filter="url(#J)" transform="translate(378 153)"><path d="M30.442 44.144v-7.502H9.486v-11.16H29.14v-7.564H9.486V7.502h20.956V0H0v44.144h30.442zm16.256 0v-18.6H65.67v-7.626H46.698V7.688H66.91V0H37.15v44.144h9.548zm35.942 0l-.001-20.397 19.22 20.397h11.657L92.187 21.123 112.71 0h-11.532L82.639 19.431V0h-9.671v44.144h9.672z"/></g><path fill="#FA6400" fill-rule="nonzero" d="M782.895 187.291c-.106-.41-.586-2.294-1.438-5.652a143.662 143.662 0 00-1.425-5.541l-4.38-16.465H768l10.501 34.46h8.655l10.501-34.46h-7.388l-4.327 16.465-1.055 4.222c-1.02 3.975-1.619 6.28-1.794 6.913h-.212c.011.042.02.075.025.1l-.011-.042zm28.43 7.435c2.603 0 4.873-.475 6.807-1.425 1.935-.95 3.413-2.225 4.433-3.826 1.02-1.6 1.53-3.368 1.53-5.303 0-2.322-.597-4.23-1.794-5.726-1.196-1.495-2.902-2.7-5.118-3.615l-4.433-1.794c-1.372-.563-2.384-1.003-3.034-1.32a5.227 5.227 0 01-1.636-1.213c-.44-.492-.66-1.108-.66-1.847 0-1.055.422-1.882 1.266-2.48.845-.598 1.988-.897 3.43-.897 1.337 0 2.586.228 3.747.686 1.161.457 2.34 1.16 3.536 2.11l3.641-4.59c-1.407-1.408-3.078-2.507-5.013-3.299-1.935-.791-3.905-1.187-5.91-1.187-2.287 0-4.345.449-6.175 1.346-1.829.897-3.263 2.11-4.3 3.64a8.874 8.874 0 00-1.557 5.093c0 2.322.65 4.248 1.952 5.779 1.302 1.53 2.973 2.717 5.014 3.562l4.538 1.952c1.372.563 2.366 1.003 2.981 1.32a4.776 4.776 0 011.53 1.213c.405.493.608 1.108.608 1.847 0 1.161-.449 2.067-1.346 2.718-.897.65-2.19.976-3.879.976-1.442 0-2.928-.334-4.459-1.002a15.8 15.8 0 01-4.195-2.692l-4.169 4.96a17.592 17.592 0 005.858 3.721 18.632 18.632 0 006.807 1.293z"/></g></svg>